<svg width="192px" height="145px" viewBox="0 0 192 145" xmlns="http://www.w3.org/2000/svg"><desc>Created with Sketch.</desc><g fill="none" fill-rule="evenodd"><path d="M2.4 54.9c.5-4.3.9-8.4 2.7-12.3 1.6-3.4 4-5.9 6.2-8.9 2.2-3.1 3.2-6.8 5.8-9.8 2.8-3.2 6.5-5.3 10.2-7.4 6.3-3.6 12.9-6.7 19.7-9.4C55.5.6 72.7.2 81.9 1.1c9 .9 18 2.6 26.8 4.6 8.8 1.9 17.1 4.4 24.6 9.6 13 9.2 28.9 21.7 29.1 39.2.2 18.2-15.8 30.2-32.8 31.1-1.4.1-2.6-.1-3.6-.5-1.6.5-3.3.9-4.9 1.4l-11.1 3c-2.8.8-6.5 1.4-8.8 3.4-2.7 2.5-3.9 7.5-5.5 10.8-2.8 6.2-7.2 11.4-13.7 13.7-7.5 2.7-16.6 1.8-24.5 1.7-4.2 0-8.2-.3-12.2-1.9-3.6-1.4-6.9-3.3-10.6-4.4-7.8-2.2-16.4-3.2-22.1-9.7-5.1-5.8-8.6-14.9-10-22.4-1.6-8.4-1.1-17.1-.2-25.8z" id="Shape" fill="#92D1D5" fill-rule="nonzero" opacity="0.15"/><circle id="Oval" fill="#92D0D5" fill-rule="nonzero" cx="161.9" cy="52.7" r="2.5"/><circle id="Oval" fill="#92D0D5" fill-rule="nonzero" cx="151.9" cy="31.7" r="2.5"/><circle id="Oval" fill="#92D0D5" fill-rule="nonzero" cx="131.9" cy="16.7" r="2.5"/><circle id="Oval" fill="#92D0D5" fill-rule="nonzero" cx="108.9" cy="7.7" r="2.5"/><circle id="Oval" fill="#92D0D5" fill-rule="nonzero" cx="84" cy="2.8" r="2.5"/><circle id="Oval" fill="#92D0D5" fill-rule="nonzero" cx="63" cy="2.8" r="2.5"/><circle id="Oval" fill="#92D0D5" fill-rule="nonzero" cx="42.8" cy="9.5" r="2.5"/><circle id="Oval" fill="#92D0D5" fill-rule="nonzero" cx="22.6" cy="21.7" r="2.5"/><circle id="Oval" fill="#92D0D5" fill-rule="nonzero" cx="9.1" cy="36.7" r="2.5"/><circle id="Oval" fill="#92D0D5" fill-rule="nonzero" cx="3" cy="66.5" r="2.5"/><circle id="Oval" fill="#92D0D5" fill-rule="nonzero" cx="4.2" cy="87.3" r="2.5"/><circle id="Oval" fill="#92D0D5" fill-rule="nonzero" cx="14.1" cy="106.8" r="2.5"/><circle id="Oval" fill="#92D0D5" fill-rule="nonzero" cx="29.5" cy="110.7" r="2.5"/><circle id="Oval" fill="#92D0D5" fill-rule="nonzero" cx="51.1" cy="110.7" r="2.5"/><circle id="Oval" fill="#92D0D5" fill-rule="nonzero" cx="70.7" cy="114.5" r="2.5"/><circle id="Oval" fill="#92D0D5" fill-rule="nonzero" cx="41.1" cy="130.7" r="2.5"/><circle id="Oval" fill="#92D0D5" fill-rule="nonzero" cx="60.7" cy="134.5" r="2.5"/><circle id="Oval" fill="#92D0D5" fill-rule="nonzero" cx="91.2" cy="110.1" r="2.5"/><circle id="Oval" fill="#92D0D5" fill-rule="nonzero" cx="98.9" cy="98.3" r="2.5"/><circle id="Oval" fill="#92D0D5" fill-rule="nonzero" cx="109.8" cy="89.1" r="2.5"/><circle id="Oval" fill="#92D0D5" fill-rule="nonzero" cx="133.1" cy="85.7" r="2.5"/><circle id="Oval" fill="#92D0D5" fill-rule="nonzero" cx="113.1" cy="110.7" r="2.5"/><circle id="Oval" fill="#92D0D5" fill-rule="nonzero" cx="152.1" cy="77.7" r="2.5"/><circle id="Oval" fill="#92D0D5" fill-rule="nonzero" cx="147.8" cy="49.2" r="2.5"/><circle id="Oval" fill="#92D0D5" fill-rule="nonzero" cx="140.1" cy="32.9" r="1.4"/><circle id="Oval" fill="#92D0D5" fill-rule="nonzero" cx="129.5" cy="30.4" r="2.5"/><circle id="Oval" fill="#92D0D5" fill-rule="nonzero" cx="95.2" cy="12" r="2.5"/><circle id="Oval" fill="#92D0D5" fill-rule="nonzero" cx="66.5" cy="14.5" r="2.5"/><circle id="Oval" fill="#92D0D5" fill-rule="nonzero" cx="112.2" cy="30.4" r="2.5"/><circle id="Oval" fill="#92D0D5" fill-rule="nonzero" cx="136.9" cy="56" r="2.5"/><circle id="Oval" fill="#92D0D5" fill-rule="nonzero" cx="133.1" cy="42.8" r="2.5"/><circle id="Oval" fill="#92D0D5" fill-rule="nonzero" cx="115.8" cy="46.7" r="2.5"/><circle id="Oval" fill="#92D0D5" fill-rule="nonzero" cx="87.2" cy="33.8" r="2.5"/><circle id="Oval" fill="#92D0D5" fill-rule="nonzero" cx="90.2" cy="68.6" r="2.5"/><circle id="Oval" fill="#92D0D5" fill-rule="nonzero" cx="106.5" cy="72.7" r="2.5"/><circle id="Oval" fill="#92D0D5" fill-rule="nonzero" cx="123.6" cy="73.8" r="2.5"/><circle id="Oval" fill="#92D0D5" fill-rule="nonzero" cx="65.5" cy="35.4" r="2.5"/><circle id="Oval" fill="#92D0D5" fill-rule="nonzero" cx="58.7" cy="63.6" r="2.5"/><circle id="Oval" fill="#92D0D5" fill-rule="nonzero" cx="78.4" cy="52.3" r="2.5"/><circle id="Oval" fill="#92D0D5" fill-rule="nonzero" cx="47.7" cy="30.4" r="2.5"/><circle id="Oval" fill="#92D0D5" fill-rule="nonzero" cx="36.8" cy="61.2" r="2.5"/><circle id="Oval" fill="#92D0D5" fill-rule="nonzero" cx="24.2" cy="64.1" r="2.5"/><circle id="Oval" fill="#92D0D5" fill-rule="nonzero" cx="109.8" cy="89.1" r="2.5"/><circle id="Oval" fill="#92D0D5" fill-rule="nonzero" cx="59.4" cy="92.9" r="2.5"/><circle id="Oval" fill="#92D0D5" fill-rule="nonzero" cx="82.2" cy="80.4" r="2.5"/><circle id="Oval" fill="#92D0D5" fill-rule="nonzero" cx="47.2" cy="87.3" r="2.5"/><circle id="Oval" fill="#92D0D5" fill-rule="nonzero" cx="31.2" cy="80" r="2.5"/><circle id="Oval" fill="#92D0D5" fill-rule="nonzero" cx="20.2" cy="92.6" r="2.5"/><circle id="Oval" fill="#92D0D5" fill-rule="nonzero" cx="14.5" cy="54.1" r="2.5"/><circle id="Oval" fill="#92D0D5" fill-rule="nonzero" cx="20.2" cy="34.8" r="2.5"/><circle id="Oval" fill="#92D0D5" fill-rule="nonzero" cx="56.7" cy="20.7" r="2.5"/><circle id="Oval" fill="#92D0D5" fill-rule="nonzero" cx="71.8" cy="69.6" r="2.5"/><circle id="Oval" fill="#92D0D5" fill-rule="nonzero" cx="50.2" cy="45.9" r="2.5"/><circle id="Oval" fill="#92D0D5" fill-rule="nonzero" cx="73.5" cy="99.9" r="2.5"/><circle id="Oval" fill="#92D0D5" fill-rule="nonzero" cx="156" cy="57.8" r="1.4"/><circle id="Oval" fill="#92D0D5" fill-rule="nonzero" cx="123.6" cy="16.9" r="1.4"/><circle id="Oval" fill="#92D0D5" fill-rule="nonzero" cx="99.4" cy="23.1" r="1.4"/><circle id="Oval" fill="#92D0D5" fill-rule="nonzero" cx="145.3" cy="70.2" r="1.4"/><circle id="Oval" fill="#92D0D5" fill-rule="nonzero" cx="130.1" cy="67.7" r="1.4"/><circle id="Oval" fill="#92D0D5" fill-rule="nonzero" cx="103.5" cy="35.6" r="1.4"/><circle id="Oval" fill="#92D0D5" fill-rule="nonzero" cx="86.1" cy="19.3" r="1.4"/><circle id="Oval" fill="#92D0D5" fill-rule="nonzero" cx="91.6" cy="45.2" r="1.4"/><circle id="Oval" fill="#92D0D5" fill-rule="nonzero" cx="97.3" cy="56" r="1.4"/><circle id="Oval" fill="#92D0D5" fill-rule="nonzero" cx="73.5" cy="24.2" r="1.4"/><circle id="Oval" fill="#92D0D5" fill-rule="nonzero" cx="64" cy="56" r="1.4"/><circle id="Oval" fill="#92D0D5" fill-rule="nonzero" cx="35" cy="24.2" r="1.4"/><circle id="Oval" fill="#92D0D5" fill-rule="nonzero" cx="72.4" cy="82.9" r="1.4"/><circle id="Oval" fill="#92D0D5" fill-rule="nonzero" cx="48.8" cy="77.7" r="1.4"/><circle id="Oval" fill="#92D0D5" fill-rule="nonzero" cx="33.3" cy="39.2" r="1.4"/><circle id="Oval" fill="#92D0D5" fill-rule="nonzero" cx="33.3" cy="98.3" r="1.4"/><circle id="Oval" fill="#92D0D5" fill-rule="nonzero" cx="15.2" cy="82" r="1.4"/><circle id="Oval" fill="#92D0D5" fill-rule="nonzero" cx="12" cy="45.9" r="1.4"/><circle id="Oval" fill="#92D0D5" fill-rule="nonzero" cx="39.5" cy="75.2" r="1.4"/><circle id="Oval" fill="#92D0D5" fill-rule="nonzero" cx="26.1" cy="102.1" r="1.4"/><circle id="Oval" fill="#92D0D5" fill-rule="nonzero" cx="55.6" cy="108.1" r="1.4"/><circle id="Oval" fill="#92D0D5" fill-rule="nonzero" cx="47.6" cy="143.1" r="1.4"/><circle id="Oval" fill="#92D0D5" fill-rule="nonzero" cx="96.2" cy="87.3" r="1.4"/><circle fill="#92D0D5" fill-rule="nonzero" cx="133.5" cy="74.6" r="1.4"/><path d="M161.9 52.7l-10-21M152.1 32.1l-4.3 17.1M156 57.8l-8.2-8.6M161.9 52.7l-5.9 5.1M152.1 32.1l-20.2-15.4M140.1 32.9l-8.2-16.2M129.5 30.4l11.2 2.5M147.8 49.2l-7.7-16.3M133.1 42.8l-3.6-12.4M152.1 77.7l9.8-25M133.1 85.7l19-8M109.8 89.1l23.3-3.4M98.9 98.3l10.9-9.2M91.2 109.5l6.9-11.2M70.7 114.5l20.5-4.4M51.1 110.7l19.6 3.8M29.5 110.7h21.6M55.6 108.1l-4.5 2.6M70.7 114.5l-15.1-6.4M91.2 110.1L73.5 99.9M98.9 98.3l-2.7-11M109.8 89.1l-13.6-1.8M123.6 73.8l-13.8 15.3M133.1 85.7L123 73.8M133.5 74.6l-.4 12M145.3 70.2l-11.8 4.4M136.9 56l8.4 14.2M130.1 67.7l6.8-11.7M156 57.8L136.9 56M147.8 50.2L136.9 56M133.1 42.8l14.7 6.4M132.2 16.7l-23.3-9M94.8 12l14.1-4.3M95.2 12.2l-9.4 7.3M129.5 30.4l-5.9-13.5M132.2 16.7l-8.6.2M108.9 7.7l3.3 22.7M124 16.9l-11.8 13.5M108.9 7.7l14.7 9.2M129.5 30.4h-17.3M132.7 42.8l-16.9 3.9M112.2 30.4l3.6 16.3M136.9 56l-21.1-9.3M130.1 68.1l-6.5 5.7M133.5 74.6l-3.4-6.9M152.3 77.2l-7-7M156 58.5l-3.9 19.2M145.3 70.2L156 57.8M123.6 73.2l-7.8-26.5M106.5 72.7l9.3-26M109.8 89.1l-3.3-16.4M123.6 73.8L106 72.7M112.2 30.4l-12.8-7.3M95.2 12.2l4.2 10.9M103.5 35.6l-16.3-1.8M112.6 30.4l-9.1 5.2M99.4 23.1L87.2 33.8M116.3 46.7l-12.8-11.1M97.3 56l18.5-9.3M91.6 45.2L97.3 56M104 36l-12.8 8.7M87.2 33.8l4.4 11.4M78.4 52.3l8.8-18.5M66.5 14.5l19.6 4.8M57 20.7l9.5-6.2M42.8 9.5L57 20.7M66.2 14.7l7.3 9.5M78.4 52.6L65.5 35.4M73.8 24.1l-7.3 11.3M87.3 34.2l-13.8-10M86.1 19.3l1.1 14.5M57 20.7l8.5 14.7M42.8 9.8l-20.6 12M9.1 36.7l13.5-14.9M108.5 7.7L84 2.8M63 2.8h21M95.2 11.9L84 2.8M66.2 14.7L63 2.8M84.7 2.8L66.5 14.5M42.8 9.5l20.6-6.7M56.7 20.7l-9 9.7M35 24.2l12.7 6.2M42.8 9.5L35 24.2M22.6 21.7L35 24.2M33.3 39.2l1.7-15M20.2 34.8l13.1 4.4M47.7 30.4l2.5 15.5M65.5 35.4L64 56M50.2 45.9L64 56M65.5 35.4L50.2 45.9M33.3 39.2l16.9 6.7M36.8 61.2l13.4-15.3M58.7 63.6l-8.5-17.7M71.8 69.6l-13.1-6M82.2 80.4L71.8 69.6M90.2 68.6l-11.8-16M97.3 56l-7.1 12.6M106.5 72.7l-16.3-4.1M82.2 80.4l8-11.8M96.2 87.3l-6-18.7M71.5 69.6l6.9-17.3M72.4 82.9l-.6-13.3M48.8 77.7l9.9-14.1M64 56l-5.3 7.6M36.8 61.6l-12.6 2.5M91.6 45.2l-13.4 7.5M82.2 80.4l-8.7 19.5M98.9 98.3L82.2 80.4M72.4 82.9l1.1 17M70.7 114.5l2.8-14.6M59.4 92.9l14.1 7M71.5 69.6L59.4 92.9M72.4 82.9l-25.2 4.4M59.4 92.9l-1-29.8M48.8 77.7l-1.6 9.6M58.9 63.7l-22.1-2.1M48.8 77.7l-9.3-2.5M36.8 61.2l2.7 14M47.2 87.3l-16-7.3M23.7 63.6L31.2 80M39.5 75.2L3 66.5M31.2 80l8.3-4.8M9.1 36.7L3 66.5M4.2 87.3L3 66.5M14.1 106.8L4.2 87.3M29.5 110.7l-15.4-3.9M33.3 98.3l-3.8 12.4M59.4 92.9l-12.2-5.6M51.1 110.1l-4.4-22.7M31.2 80l20.5 30.8M73.5 99.9l-17.9 8.2M33.3 98.3l26.1-5.4M31.2 80l2.1 18.3M20.2 92.6l11-12.6M15.2 82L3 66.5M4.2 87.3l16 5.3M31.2 80l-16 2M24.2 64.1l-9 17.9M20.2 34.8L9.1 36.7M14.5 54.1l5.7-19.3M24.2 64.1l-9.7-10M33.3 39.2l-9.1 24.9M36.8 61.2L20.2 34.8M78.5 52.7L64 56M12 45.9l2.7 8.8M20 35.4l-8 10.5M9.1 36.7l2.9 9.2M14.7 54.7L3 66.5M20.2 92.6l-5-10.6M33.3 98.3l-7.2 3.8M20.2 92.6l5.9 9.5M31.2 80l-5.1 22.1M14.1 106.8l12-4.7M29.5 110.7l-3.4-8.6M20.2 92.6l-6.1 14.2M59.4 92.9l-3.8 15.2M96.2 87.3l-14.4-6.9M72.4 82.9l9.8-2.3M15.2 82l-.5-27.9M136.9 56l-30.4 16.7M129.5 30.4l-13.7 16.3M47.7 30.4l17.8 5M99.4 98.3l-25.1 1.6M112.8 29.7l-6.3 43M189.6 81.3l1.9-.7M182.1 84.2l5.4-2.1M113.3 111.2l62.8-24.6M189.6 134.5l1.9.5M182.1 132.2l5.4 1.6M113.3 111.2l62.8 19.1M51.7 110.8l9 23.7M70.7 114.5l-10 20M51.7 110.8l-10.6 19.9M29.5 110.7l31.2 23.8M47.6 143.1l3.5-33M41.7 130.7l5.9 12.4M139.2 100.8c2.4 5.6 2 11.8 0 18.5M91.2 110.1l22.1.6M98.7 98l14.6 12.7" stroke="#92D1D5" stroke-linecap="round" stroke-linejoin="round" opacity="0.5"/></g></svg>