<svg width="40px" height="40px" viewBox="0 0 40 40" xmlns="http://www.w3.org/2000/svg"><desc>Created with Sketch.</desc><g fill="none" fill-rule="evenodd"><path id="Path" fill="#92D1D5" opacity="0.2" d="M22.59 36.55H1.34v-35h26.25v21.26l-4.4-3.37-2.12 1.72 1.92 3.5z"/><path d="M39.444 34.854c.23.345.137.81-.208 1.04-.345.23-.81.137-1.04-.208l-2.48-3.72c-.082-.123-.126-.268-.126-.416V22.8c0-.274-.06-.566-.18-.876-.51-1.305-1.98-2.768-4.352-4.51-.73-.535-3.44-2.4-3.923-2.768-.33-.252-.392-.722-.14-1.05.25-.33.72-.393 1.05-.142.446.34 3.142 2.194 3.9 2.75 2.594 1.906 4.217 3.52 4.862 5.176.186.477.283.95.283 1.42v8.523l2.354 3.53zM21.12 23.73c-.74-.74-1.026-1.818-.753-2.826.272-1.01 1.06-1.796 2.07-2.065 1.01-.27 2.087.02 2.762.705l6.08 4.87c.322.26.374.73.115 1.054-.26.322-.73.374-1.054.115L24.2 20.66c-.36-.36-.885-.502-1.376-.37-.492.13-.877.513-1.01 1.004-.132.49.008 1.016.397 1.41l5.89 6.65c.123.136.19.313.19.496V34c0 .356.136.83.4 1.38.22.465.52.965.877 1.484.295.427.613.84.93 1.226.19.23.336.396.416.484.28.305.26.78-.047 1.06-.305.28-.78.258-1.06-.048-.095-.105-.258-.29-.465-.54-.342-.416-.685-.864-1.007-1.33-.4-.58-.74-1.147-1-1.69-.35-.736-.543-1.41-.543-2.026v-3.866l-5.67-6.405zM22.59 35.8c.414 0 .75.336.75.75s-.336.75-.75.75H3.587C1.907 37.293.55 35.93.55 34.25V3.843c-.004-.817.323-1.6.906-2.175C2.04 1.095 2.83.782 3.63.8h21.667c.808-.004 1.584.316 2.156.887.57.572.89 1.348.887 2.153v18.53c0 .414-.336.75-.75.75s-.75-.336-.75-.75V3.837c.002-.408-.16-.8-.448-1.09-.29-.287-.68-.45-1.092-.447H3.614c-.413-.01-.812.15-1.106.438-.295.29-.46.686-.458 1.102v30.41c0 .853.69 1.546 1.54 1.55h19zM16.34 7.3c-.414 0-.75-.336-.75-.75s.336-.75.75-.75h5c.414 0 .75.336.75.75v5c0 .414-.336.75-.75.75s-.75-.336-.75-.75V7.3h-4.25zM20.833 5.997c.306-.28.78-.26 1.06.046s.26.78-.046 1.06l-15 13.75c-.306.28-.78.26-1.06-.046s-.26-.78.046-1.06l15-13.75zM8.07 26.55c0-.414.336-.75.75-.75s.75.336.75.75v5c0 .414-.336.75-.75.75s-.75-.336-.75-.75v-5zM13.07 22.8c0-.414.336-.75.75-.75s.75.336.75.75v8.75c0 .414-.336.75-.75.75s-.75-.336-.75-.75V22.8z" fill="#445EA8" fill-rule="nonzero"/></g></svg>