<svg xmlns="http://www.w3.org/2000/svg" width="1092.307" height="1051.552" viewBox="0 0 1092.307 1051.552">
  <g id="Group_21" data-name="Group 21" transform="translate(-433.441 -1079.844)">
    <path id="Path_1" data-name="Path 1" d="M1082,1234s91.958,278.982,277.7,322.261,468.411-179.43,634.767-9.017c73.03,74.811-379.246,233.144-340.827,351.646,16.838,51.936,175.026,21.274,207.381,39.673,61.188,34.8,34.263,215.045-46.886,252.464s-119.019-96.478-277.71-102.789,26.148,142.462-146.069,124.429c-127.956-13.4-180.5,15.014-223.383,42.4-14.7,9.388-28.33,18.71-43.508,26.125-59.059,28.853-48.851-121.615-48.851-121.615V1669.707Z" transform="translate(-640 -154)" fill="#d0d0e5" stroke="#707070" stroke-width="1"/>
    <g id="Group_6" data-name="Group 6" transform="translate(535 1277)">
      <path id="Path_134" data-name="Path 134" d="M994,571.118A361.652,361.652,0,0,1,977.1,671.09c-.235.751-.482,1.491-.729,2.242H913.329c.067-.673.135-1.424.2-2.242,4.2-48.327,28.44-342.458-.538-392.758C915.526,282.412,998.885,417.562,994,571.118Z" transform="translate(-102.125 -121.48)" fill="#e6e6e6"/>
      <path id="Path_135" data-name="Path 135" d="M989.266,671.09c-.527.751-1.076,1.5-1.637,2.242h-47.3c.359-.639.773-1.39,1.256-2.242,7.813-14.1,30.94-56.264,52.407-99.972,23.07-46.971,44.235-95.723,42.453-113.368C1037,461.729,1052.96,583.045,989.266,671.09Z" transform="translate(-102.125 -121.48)" fill="#e6e6e6"/>
      <path id="Path_136" data-name="Path 136" d="M278.48,677.33H189.74c-.11-.34-.22-.67-.33-1-.22-.67-.44-1.33-.65-2-.02-.05-.03-.11-.05-.16-.66-2.05-1.31-4.11-1.94-6.16q-4.965-16.14-8.72-32.32a97.762,97.762,0,0,0,47.84,15.13c-.8-1.46-1.61-2.96-2.45-4.51l-53.31-52.82q-1.965-13.575-3.18-27.07l81.99,81.99c1.21-.27,2.41-.57,3.6-.89a90.624,90.624,0,0,0,22.65-9.5c.87,10.84,1.63,20.04,2.24,27.28.3,3.4.55,6.37.77,8.87,0,.05.01.11.01.16.06.71.12,1.38.18,2C278.42,676.68,278.45,677.01,278.48,677.33Z" transform="translate(-102.125 -121.48)" fill="#e6e6e6"/>
      <path id="Path_137" data-name="Path 137" d="M273.75,619.55q-2.205,1.665-4.54,3.14a72.253,72.253,0,0,1-15.27,7.38L172.4,548.53l-7.16-7.16q-.2-3.96-.31-7.92-.21-6.45-.26-12.88a75.436,75.436,0,0,1,57.49-36.11c2.22-.21,4.48-.31,6.76-.31a74.313,74.313,0,0,1,22.932,3.624,75.178,75.178,0,0,1,13.538,5.866c1.28,23.03,2.66,45.12,4.03,65.56h-7.14v16.67h8.27c.66,9.36,1.3,18.3,1.92,26.73Q273.13,611.465,273.75,619.55Z" transform="translate(-102.125 -121.48)" fill="#e6e6e6"/>
      <path id="Path_138" data-name="Path 138" d="M264.03,468.14q.165,3.195.33,6.38a91.362,91.362,0,0,0-99.34,19.29q.6-16.92,2.1-33.52c16.24-182.78,107.24-331.54,111.74-338.81-23.06,40.4-22.07,190.96-15.82,326.1Q263.52,457.93,264.03,468.14Z" transform="translate(-102.125 -121.48)" fill="#e6e6e6"/>
      <path id="Path_139" data-name="Path 139" d="M172.4,548.53l-7.16-7.16-7.19-7.19a76.843,76.843,0,0,1,3.41-7.83q1.725,3.555,3.47,7.1Q168.65,541.025,172.4,548.53Z" transform="translate(-102.125 -121.48)" fill="#e6e6e6"/>
      <path id="Path_140" data-name="Path 140" d="M240.47,677.33H173.9c-.25-.33-.5-.66-.75-1-.49-.66-.98-1.33-1.45-2-.04-.05-.07-.11-.11-.16q-8.535-11.8-15.75-24.12l-.01-.01c-20.98-35.63-34.05-73.8-42.04-110.06-18.94-85.99-9.28-161.18-8.62-166-1.8,18.49,14.14,61.03,35.74,108.74,3.83,8.47,7.84,17.1,11.96,25.78a91.293,91.293,0,0,0-13.16,30.68l57.11,57.11c9.92,18.99,19.12,36.17,26.62,50.02l-53.31-52.82L137.2,560.86a90.506,90.506,0,0,0,26.69,63.37,87.01,87.01,0,0,0,14.16,11.46,97.762,97.762,0,0,0,47.84,15.13c5.48,10.09,9.9,18.1,12.81,23.35.03.06.06.11.09.16.22.39.43.76.63,1.12.17.31.33.6.49.88C240.1,676.68,240.29,677.01,240.47,677.33Z" transform="translate(-102.125 -121.48)" fill="#e6e6e6"/>
      <rect id="Rectangle_35" data-name="Rectangle 35" width="984" height="2" transform="translate(6.748 552.852)" fill="#2f2e41"/>
      <path id="Path_142" data-name="Path 142" d="M270.55,575.87c.66,9.36,1.3,18.3,1.92,26.73q.66,8.865,1.28,16.95a73.586,73.586,0,0,0,8.39-7.28,76.4,76.4,0,0,0,20.16-36.4ZM164.93,533.45q-.21-6.45-.26-12.88-1.725,2.8-3.21,5.78a76.843,76.843,0,0,0-3.41,7.83l7.19,7.19Q165.045,537.41,164.93,533.45Zm105.62,42.42c.66,9.36,1.3,18.3,1.92,26.73q.66,8.865,1.28,16.95a73.586,73.586,0,0,0,8.39-7.28,76.4,76.4,0,0,0,20.16-36.4Zm0,0c.66,9.36,1.3,18.3,1.92,26.73q.66,8.865,1.28,16.95a73.586,73.586,0,0,0,8.39-7.28,76.4,76.4,0,0,0,20.16-36.4Zm-105.88-55.3q-1.725,2.8-3.21,5.78a76.847,76.847,0,0,0-3.41,7.83l7.19,7.19q-.2-3.96-.31-7.92-.21-6.45-.26-12.88Zm172.42-5.13a117.747,117.747,0,0,0-74.05-67.86,116.1,116.1,0,0,0-95.92,12.71,118.006,118.006,0,0,0-26.21,22.43,116.289,116.289,0,0,0,14.92,167.32l.01.01a116.942,116.942,0,0,0,30.93,17.96,115.741,115.741,0,0,0,42.15,7.92q5.31,0,10.5-.48,4.4-.39,8.69-1.12a114.272,114.272,0,0,0,29.32-9.03,117.787,117.787,0,0,0,61.17-66.23,114.654,114.654,0,0,0,5.86-23.2,116.112,116.112,0,0,0-7.37-60.43ZM178.05,635.69a87.013,87.013,0,0,1-14.16-11.46,90.506,90.506,0,0,1-26.69-63.37l32.93,32.63,53.31,52.82,4.65,4.61c-.73-.03-1.47-.06-2.2-.1a97.761,97.761,0,0,1-47.84-15.13Zm141.04-59.82a91.415,91.415,0,0,1-25.45,47.9,93.127,93.127,0,0,1-12.74,10.61c-1.85,1.28-3.76,2.5-5.71,3.64a90.624,90.624,0,0,1-22.65,9.5c-1.19.32-2.39.62-3.6.89L139.71,539.18a91.3,91.3,0,0,1,13.16-30.68,93.1,93.1,0,0,1,12.15-14.69,91.335,91.335,0,0,1,117.3-9.28A93.564,93.564,0,0,1,303.13,505l-12.5,10.84a79.252,79.252,0,0,0-25.24-22.2,75.178,75.178,0,0,0-13.55-5.87,74.3,74.3,0,0,0-22.92-3.62c-2.28,0-4.54.1-6.76.31a75.436,75.436,0,0,0-57.49,36.11q-1.725,2.805-3.21,5.78a76.843,76.843,0,0,0-3.41,7.83l7.19,7.19,7.16,7.16,81.54,81.54a72.256,72.256,0,0,0,15.27-7.38q2.34-1.47,4.54-3.14a73.586,73.586,0,0,0,8.39-7.28,76.4,76.4,0,0,0,20.16-36.4H262.28V559.2h58.36a89.9,89.9,0,0,1-1.55,16.67Zm-48.54,0c.66,9.36,1.3,18.3,1.92,26.73q.66,8.865,1.28,16.95a73.586,73.586,0,0,0,8.39-7.28,76.4,76.4,0,0,0,20.16-36.4Zm0,0c.66,9.36,1.3,18.3,1.92,26.73q.66,8.865,1.28,16.95a73.586,73.586,0,0,0,8.39-7.28,76.4,76.4,0,0,0,20.16-36.4Z" transform="translate(-102.125 -121.48)" fill="#639"/>
      <path id="Path_143" data-name="Path 143" d="M332.4,648.706l33.6-5.27-13.836-14.494H332.4Z" fill="#ffb8b8"/>
      <path id="Path_144" data-name="Path 144" d="M440.955,778.187l33.236-10.933a6.464,6.464,0,0,0,3.762-9.031h0a6.464,6.464,0,0,0-6.217-3.558l-7.539.509-2.955-1.663a1.719,1.719,0,0,0-2.432,2.152l2.725,6.617L433.864,760.3,432.5,771.226a6.481,6.481,0,0,0,8.457,6.961Z" transform="translate(-102.125 -121.48)" fill="#2f2e41"/>
      <path id="Path_145" data-name="Path 145" d="M343.056,753.635l34.918,9.224c-6.431-13.341-10.392-25.146-7.906-32.941L353.6,727.941Z" transform="translate(-102.125 -121.48)" fill="#ffb8b8"/>
      <path id="Path_146" data-name="Path 146" d="M345.2,765.344l36.129,2.343a6.689,6.689,0,0,0,7.1-7.216h0a6.689,6.689,0,0,0-4.594-5.817L376.4,752.23l-2.194-2.738a1.778,1.778,0,0,0-3.166,1.126l.06,7.4-25.8-12.586-5.529,9.958a6.707,6.707,0,0,0,5.429,9.949Z" transform="translate(-102.125 -121.48)" fill="#2f2e41"/>
      <circle id="Ellipse_30" data-name="Ellipse 30" cx="24.377" cy="24.377" r="24.377" transform="translate(333.046 177.592)" fill="#ffb8b8"/>
      <path id="Path_147" data-name="Path 147" d="M420.869,355.185l28.177,21.3c4.554-17.387,10.02-29.807,17.181-32.988L438.05,327.008Z" transform="translate(-102.125 -121.48)" fill="#ffb8b8"/>
      <path id="Path_148" data-name="Path 148" d="M245.9,606.2l24.054,10.309,55.667-131.265,4.468,146.041,24.054-1.374,26.8-228.856-2.061-13.058-91.062,20.274L286.443,481.8Z" fill="#2f2e41"/>
      <path id="Path_149" data-name="Path 149" d="M487.189,316.355s-15.807-14.432-20.618-8.247-6.185,7.56-8.934,7.56-9.622,7.56-9.622,7.56-3.436-6.873-7.56-1.375-4.811,13.745-4.811,13.745-15.12-35.05,11.683-41.922S493.374,308.108,487.189,316.355Z" transform="translate(-102.125 -121.48)" fill="#2f2e41"/>
      <path id="Path_150" data-name="Path 150" d="M383.757,540.744c13.058-5.718,13.443-1.23,32.3,6.185,23.752,2.948,38.85,3.326,46.39-6.529,3.086-19.566,5.615-38.328,7.175-56.169q.484-5.515.838-10.92c2.749-41.971-.618-78.457-15.917-107.817l-27.49-20.618-8.969,6.508C396.664,366.93,400,390.812,397.151,417.127Z" transform="translate(-102.125 -121.48)" fill="#6c63ff"/>
      <path id="Path_151" data-name="Path 151" d="M364.79,413.079l14.432-12.371-1.374-12.37H364.79Z" fill="#ffb8b8"/>
      <path id="Path_152" data-name="Path 152" d="M428.825,410.509s-20.007,47.936-11.6,76.973,45.224,39.174,45.224,39.174S460.727,422.88,428.825,410.509Z" transform="translate(-102.125 -121.48)" opacity="0.2"/>
      <path id="Path_153" data-name="Path 153" d="M444.579,463.428l25.043,20.8q.484-5.515.838-10.92l-16.948-75.859Z" transform="translate(-102.125 -121.48)" opacity="0.2"/>
      <path id="Path_154" data-name="Path 154" d="M462.791,526.312l19.93-15.807-26.116-65.977-.593-68.771A15.659,15.659,0,0,0,445.6,361.138h0a15.659,15.659,0,0,0-20.9,14.543l-1.079,79.844Z" transform="translate(-102.125 -121.48)" fill="#6c63ff"/>
    </g>
  </g>
</svg>
