<svg width="39px" height="39px" viewBox="0 0 39 39" xmlns="http://www.w3.org/2000/svg"><desc>Created with Sketch.</desc><g transform="translate(0 1)" fill="none" fill-rule="evenodd"><circle fill="#93D1D5" opacity="0.2" cx="25.66" cy="7.99" r="7.61"/><path d="M2.5 5.742l-2.38-3c-.19-.238-.15-.584.088-.773.238-.19.584-.15.773.088l2.5 3.15c.078.097.12.218.12.342v7.464c-.043 1.72 1.24 3.377 4.272 5.983.324.28.454.39 1.228 1.042l.546.46c.232.197.26.544.063.776-.197.232-.544.26-.776.063l-.543-.46c-.777-.656-.907-.766-1.235-1.048C3.868 17.007 2.445 15.17 2.5 13V5.742zM14.304 10.787c.994 1.02.97 2.654-.05 3.647-1.022.994-2.655.97-3.643-.045l-3-3c-.214-.216-.214-.564 0-.78.216-.214.564-.214.78 0l3.004 3.007c.57.585 1.507.598 2.093.03.585-.57.598-1.508.03-2.092l-4.58-4.68c-.1-.103-.157-.24-.157-.385V4.053c-.264-1.34-.8-2.615-1.573-3.742-.172-.25-.11-.59.142-.763.25-.172.59-.11.763.142C8.983.954 9.58 2.387 9.87 3.896L9.88 4v2.266l4.424 4.52zM8.75 12.27c0-.304.246-.55.55-.55.304 0 .55.246.55.55v20.2c-.008.52.193 1.025.56 1.398.367.372.867.582 1.39.582h12.5c.304 0 .55.246.55.55 0 .304-.246.55-.55.55H11.8c-.817 0-1.6-.328-2.174-.91-.573-.583-.89-1.37-.876-2.18V12.27zM38.48 34.658c.19.238.15.584-.088.773-.238.19-.584.15-.773-.088l-2.5-3.15c-.078-.097-.12-.218-.12-.342V24.4c.034-1.66-1.085-3.184-3.9-5.652v7.662c0 .494-.6.737-.944.384l-2.92-3c-.572-.586-1.51-.597-2.097-.025-.587.57-.598 1.51-.027 2.095l4.59 4.68c.1.103.157.24.157.385l-.008 2.336c.24 1.384.765 2.7 1.545 3.868.17.253.1.594-.15.763-.254.17-.595.1-.764-.15-.866-1.296-1.45-2.76-1.723-4.387v-2.205l-4.434-4.52c-.996-1.022-.976-2.657.045-3.654 1.022-.995 2.657-.975 3.654.046L30 25.056V17.55c0-.468.547-.722.905-.42 3.755 3.17 5.242 4.987 5.195 7.28v7.248l2.38 3zM20.93 28.16c.304 0 .55.246.55.55 0 .304-.246.55-.55.55H14.3c-.304 0-.55-.246-.55-.55 0-.304.246-.55.55-.55h6.63zM16.8 21.91c.304 0 .55.246.55.55 0 .304-.246.55-.55.55h-2.5c-.304 0-.55-.246-.55-.55 0-.304.246-.55.55-.55h2.5zM32.5 7.463c-.002-.304.243-.55.547-.553.304-.002.55.243.553.547.017 3.26-1.933 6.208-4.94 7.468-3.006 1.26-6.476.58-8.787-1.718-2.31-2.298-3.008-5.764-1.764-8.778 1.242-3.014 4.18-4.98 7.44-4.98.304 0 .55.246.55.55 0 .304-.246.55-.55.55-2.814 0-5.35 1.697-6.424 4.3-1.074 2.6-.473 5.593 1.523 7.578 1.994 1.984 4.99 2.57 7.585 1.482 2.596-1.087 4.28-3.633 4.265-6.447zM32.66 1.44c.216-.214.565-.214.78 0 .214.216.214.565 0 .78L26.6 9.05c-.28.278-.66.436-1.055.436-.395 0-.775-.158-1.054-.437L22.34 6.9c-.214-.216-.214-.564 0-.78.216-.214.564-.214.78 0l2.15 2.15c.072.074.172.116.275.116.103 0 .203-.042.276-.115l6.84-6.83z" fill="#445DA8" fill-rule="nonzero"/></g></svg>