<svg width="42px" height="39px" viewBox="0 0 42 39" xmlns="http://www.w3.org/2000/svg"><desc>Created with Sketch.</desc><g fill="none" fill-rule="evenodd"><circle id="Oval" fill="#E2F2F5" cx="9.96" cy="35.15" r="1.65"/><circle id="Oval" fill="#E2F2F5" cx="33.56" cy="35.15" r="1.65"/><path id="Path" fill="#E2F2F5" d="M25.75 28.64H10.9v-5.45h9.39l6.7 2.81z"/><path d="M6.93 34.645c.422.01.756.362.745.785-.01.422-.362.756-.785.745-.663-.017-1.313-.188-1.9-.5-.08-.043-.154-.1-.216-.17-.404-.464-.89-1.038-.98-1.166-.054-.078-.094-.164-.116-.255-.13-.522-.215-1.056-.248-1.557-.063-.543.144-1.082.55-1.438l.415-.372v-.557c0-.716.218-1.416.585-1.94.026-.045.07-.128.136-.244l.36-.638c.376-.66.76-1.32 1.13-1.937l.246-.404c1.315-2.15 1.753-2.76 2.428-2.76l10.52.003c1.912.197 3.112.65 5.004 1.68l.347.19c.34.184.574.307.828.434l6.142 3.247c2.448.354 4.85.983 7.152 1.875 1.246.473 2.132 1.593 2.307 2.916l.29 2.246c.077.693-.317 1.353-.964 1.614l-.104.033c-1.417.347-2.87.515-4.33.502-.422-.004-.76-.35-.757-.772.004-.423.35-.762.772-.758 1.3.012 2.6-.135 3.864-.437l-.288-2.228c-.1-.764-.613-1.41-1.338-1.687-2.24-.867-4.572-1.473-6.95-1.805-.088-.013-.173-.04-.252-.082l-6.242-3.3c-.258-.13-.505-.26-.86-.453l-.348-.19c-1.73-.942-2.757-1.33-4.352-1.498H9.526c-.084.096-.19.234-.317.41-.282.39-.64.943-1.052 1.62-.08.127-.158.26-.24.394-.364.605-.742 1.255-1.112 1.905-.13.227-.25.44-.355.628-.062.114-.107.195-.17.303-.232.333-.355.728-.355 1.134v.9c0 .218-.093.425-.255.57l-.675.605c-.033.03-.05.073-.042.153.027.394.084.786.172 1.17.142.172.443.526.703.826.345.162.72.25 1.102.26z" id="Path" fill="#465BA6" fill-rule="nonzero"/><path d="M33.56 38.975c-2.112 0-3.825-1.713-3.825-3.825s1.713-3.825 3.825-3.825 3.825 1.713 3.825 3.825-1.713 3.825-3.825 3.825zm0-1.53c1.267 0 2.295-1.028 2.295-2.295s-1.028-2.295-2.295-2.295-2.295 1.028-2.295 2.295 1.028 2.295 2.295 2.295zM9.96 38.975c-2.112 0-3.825-1.713-3.825-3.825s1.713-3.825 3.825-3.825 3.825 1.713 3.825 3.825-1.713 3.825-3.825 3.825zm0-1.53c1.267 0 2.295-1.028 2.295-2.295s-1.028-2.295-2.295-2.295-2.295 1.028-2.295 2.295 1.028 2.295 2.295 2.295z" fill="#465BA6" fill-rule="nonzero"/><path d="M30.513 35.445c.422.007.76.355.752.778-.007.422-.355.76-.778.752l-17.48-.29c-.422-.007-.76-.355-.752-.778.007-.422.355-.76.778-.752l17.48.29zM11.037 27.875H31.55c.422 0 .765.343.765.765s-.343.765-.765.765H9.96c-.527 0-.896-.52-.722-1.017l1.9-5.45c.14-.4.575-.61.974-.47.4.14.61.575.47.974l-1.545 4.433zM17.185 23.19c0-.422.343-.765.765-.765s.765.343.765.765v4.71c0 .422-.343.765-.765.765s-.765-.343-.765-.765v-4.71zM25.774 26.092c.175-.384.63-.553 1.014-.378.384.175.553.63.378 1.014l-.68 1.49c-.175.384-.63.553-1.014.378-.384-.175-.553-.63-.378-1.014l.68-1.49z" id="Path" fill="#465BA6" fill-rule="nonzero"/><path d="M19.4 31.91c-.414 0-.75-.336-.75-.75s.336-.75.75-.75h1.5c.414 0 .75.336.75.75s-.336.75-.75.75h-1.5zM4.225 25.32c.22.35.115.814-.236 1.035-.35.22-.814.115-1.035-.236C-1.34 19.294-.137 10.374 5.81 4.93c5.95-5.443 14.94-5.853 21.36-.97 6.418 4.88 8.425 13.653 4.768 20.84-.187.37-.64.516-1.008.328-.37-.187-.516-.64-.328-1.008 3.328-6.54 1.5-14.525-4.34-18.968C20.42.71 12.236 1.082 6.823 6.037 1.41 10.992.316 19.11 4.224 25.32zM10.498 20.25c.033.413-.275.775-.688.808-.413.033-.775-.275-.808-.688-.078-.974-.112-1.978-.112-3.14 0-6.535 1.415-12.504 3.72-15.892.233-.342.7-.43 1.042-.198.342.233.43.7.198 1.042-2.113 3.106-3.46 8.788-3.46 15.048 0 1.124.033 2.09.108 3.02zM1.14 17.98c-.414 0-.75-.336-.75-.75s.336-.75.75-.75H33c.414 0 .75.336.75.75s-.336.75-.75.75H1.14zM3.59 9.48c-.414 0-.75-.336-.75-.75s.336-.75.75-.75h27c.414 0 .75.336.75.75s-.336.75-.75.75h-27zM20.29 2.183c-.233-.342-.145-.808.197-1.042.342-.233.808-.145 1.042.197 2.313 3.385 3.73 9.35 3.73 15.893 0 1.468-.076 2.935-.224 4.396-.042.412-.41.712-.822.67-.412-.042-.712-.41-.67-.822.143-1.41.215-2.827.216-4.244 0-6.265-1.35-11.945-3.47-15.047z" fill="#445DA8" fill-rule="nonzero"/></g></svg>