<svg width="40px" height="40px" viewBox="0 0 40 40" xmlns="http://www.w3.org/2000/svg"><desc>Created with Sketch.</desc><g fill="none" fill-rule="evenodd"><path d="M20.29 39.79c-10.77 0-19.5-8.73-19.5-19.5S9.52.79 20.29.79s19.5 8.73 19.5 19.5-8.73 19.5-19.5 19.5zm0-1.5c9.94 0 18-8.06 18-18s-8.06-18-18-18-18 8.06-18 18 8.06 18 18 18z" id="Oval" fill="#445DA8" fill-rule="nonzero"/><path d="M8.73 22.28c-.737-.74-.737-1.94 0-2.68l9.91-9.91c.74-.737 1.94-.737 2.68 0l9.91 9.91c.737.74.737 1.94 0 2.68l-9.91 9.91c-.745.74-1.945.74-2.69 0l-9.9-9.91z" id="Path" fill="#E2F2F5"/><path d="M19.158 31.657c.452.45 1.182.45 1.632.003l9.908-9.91c.447-.448.447-1.172.002-1.62l-9.91-9.908c-.448-.447-1.172-.447-1.62-.002l-9.908 9.91c-.446.447-.447 1.172 0 1.62l9.896 9.907zM8.198 22.81c-1.028-1.035-1.028-2.705.002-3.74l9.91-9.912c1.035-1.028 2.705-1.028 3.74.002l9.912 9.91c1.028 1.035 1.028 2.705-.002 3.74l-9.912 9.913c-1.037 1.028-2.71 1.028-3.75-.003l-9.9-9.91zM20.75 22.51c0 .414-.336.75-.75.75s-.75-.336-.75-.75v-7.87c0-.414.336-.75.75-.75s.75.336.75.75v7.87z" id="Path" fill="#445EA8" fill-rule="nonzero"/><path d="M7.488 33.982c-.288.298-.763.305-1.06.016-.298-.288-.305-.763-.016-1.06l4.57-4.71 2.04-2.11 1.49-1.53 17.98-18.56c.288-.297.762-.305 1.06-.017.297.29.305.764.017 1.062l-17.983 18.56-1.488 1.53-2.042 2.11-4.57 4.71z" fill="#445DA8" fill-rule="nonzero"/><circle fill="#445DA8" cx="20" cy="26" r="1"/></g></svg>