<svg xmlns="http://www.w3.org/2000/svg" width="1108.526" height="759.79" viewBox="0 0 1108.526 759.79">
  <g id="Group_23" data-name="Group 23" transform="translate(0)">
    <path id="Path_292" data-name="Path 292" d="M398.526,677.217l-3,39,29,3-7-47Z" fill="#ffb9b9"/>
    <rect id="Rectangle_68" data-name="Rectangle 68" width="78.208" height="142.933" transform="translate(254.526 40.453)" fill="#f2f2f2"/>
    <rect id="Rectangle_69" data-name="Rectangle 69" width="105.177" height="142.933" transform="translate(486.455 511.501)" fill="#f2f2f2"/>
    <rect id="Rectangle_70" data-name="Rectangle 70" width="104.278" height="157.316" transform="translate(383.076 291.259)" fill="#f2f2f2"/>
    <rect id="Rectangle_71" data-name="Rectangle 71" width="104.278" height="157.316" transform="translate(487.354 86.299)" fill="#f2f2f2"/>
    <rect id="Rectangle_72" data-name="Rectangle 72" width="963.51" height="2.241" transform="translate(44.02 757.549)" fill="#2f2e41"/>
    <path id="Path_293" data-name="Path 293" d="M766.019,725.539H299.263V109.558H766.019Zm-464.756-2H764.019V111.558H301.263Z" transform="translate(-45.737 -70.105)" fill="#3f3d56"/>
    <path id="Path_294" data-name="Path 294" d="M668.034,725.539H398.147V110.457H668.034Zm-267.886-2H666.034V112.457H400.147Z" transform="translate(-45.737 -70.105)" fill="#3f3d56"/>
    <path id="Path_295" data-name="Path 295" d="M766.019,519.679H299.263V312.72H766.019Zm-464.756-2H764.019V314.72H301.263Z" transform="translate(-45.737 -70.105)" fill="#3f3d56"/>
    <circle id="Ellipse_75" data-name="Ellipse 75" cx="29.665" cy="29.665" r="29.665" transform="translate(323.746 213.95)" fill="#6c63ff"/>
    <circle id="Ellipse_76" data-name="Ellipse 76" cx="29.665" cy="29.665" r="29.665" transform="translate(591.632 14.383)" fill="#6c63ff"/>
    <rect id="Rectangle_73" data-name="Rectangle 73" width="2" height="613.082" transform="translate(485.904 41.352)" fill="#3f3d56"/>
    <path id="Path_296" data-name="Path 296" d="M870.678,741.039c15.147,45.586,9.827,88.389,9.827,88.389s-29.878-31.107-45.025-76.693-9.827-88.389-9.827-88.389S855.531,695.453,870.678,741.039Z" transform="translate(-45.737 -70.105)" fill="#6c63ff"/>
    <path id="Path_297" data-name="Path 297" d="M890.333,741.039c-15.147,45.586-9.827,88.389-9.827,88.389s29.878-31.107,45.025-76.693,9.827-88.389,9.827-88.389S905.48,695.453,890.333,741.039Z" transform="translate(-45.737 -70.105)" fill="#6c63ff"/>
    <path id="Path_298" data-name="Path 298" d="M896.433,741.532c1.015,48.026-16.7,87.351-16.7,87.351s-19.364-38.541-20.379-86.567,16.7-87.351,16.7-87.351S895.418,693.506,896.433,741.532Z" transform="translate(-45.737 -70.105)" fill="#3f3d56"/>
    <path id="Path_299" data-name="Path 299" d="M343.224,392.168h0c24.719,7.617,37.9,36.031,29.451,63.464l-10.741,34.854-10.719-3.3-2.227-14.826-2.428,13.392-68.9-21.232-2.024-13.478-2.207,12.174-7.757-2.391,8.433-27.366C283.833,401.888,314.779,383.4,343.224,392.168Z" transform="translate(-45.737 -70.105)" fill="#2f2e41"/>
    <path id="Path_300" data-name="Path 300" d="M304.832,496.779a16.232,16.232,0,0,0-18.852,14.93c-.431,6.043,1.655,13.117,11.022,18.356,20.008,11.19,63.4,35.585,63.4,35.585l82.784,15.9s41.833,33.381,47.074,14.395-39.695-30.578-39.695-30.578l-76.054-19.5-48.461-35.052S317.166,498.956,304.832,496.779Z" transform="translate(-45.737 -70.105)" fill="#ffb9b9"/>
    <path id="Path_301" data-name="Path 301" d="M232.636,504.455l8.32,23.449,49.925-12.1-12.86-17.4Z" fill="#ffb9b9"/>
    <path id="Path_302" data-name="Path 302" d="M99.125,724.955,61.3,721.173l26.475-25.719,18.911,12.859Z" fill="#ffb9b9"/>
    <circle id="Ellipse_77" data-name="Ellipse 77" cx="31.063" cy="31.063" r="31.063" transform="translate(257.681 338.416)" fill="#ffb9b9"/>
    <path id="Path_303" data-name="Path 303" d="M310.142,444.454s-17.4,20.424-26.475,23.449-31.77,31.77-20.424,50.681,52.95-4.539,52.95-4.539l-1.513-18.911s17.4-30.258,21.18-32.527S310.142,444.454,310.142,444.454Z" transform="translate(-45.737 -70.105)" fill="#ffb9b9"/>
    <path id="Path_304" data-name="Path 304" d="M307.118,480.975c-11.565-17.413-38.393-14.3-45.047,5.519q-.178.529-.34,1.076c-6.051,20.424,3.026,55.22,3.026,55.22l13.616,40.847S313.925,567,339.643,594.983l-3.782-28.744s10.59-24.206-3.026-41.6C324.17,513.563,316.118,494.525,307.118,480.975Z" transform="translate(-45.737 -70.105)" fill="#575a89"/>
    <path id="Path_305" data-name="Path 305" d="M340.022,596.875s-18.154-24.206-55.22-9.834l-6.808,18.911s-39.335,31.014-17.4,78.669l-1.513,71.1-6.051,20.424-109.683-9.077-3.782,34.8,19.667,1.513s111.2,43.873,128.593,16.641,53.707-134.645,53.707-134.645l94.182,14.1s-2.756,29.475.269,33.257,1.513,19.667,3.026,22.693.252,10.891.252,10.891l31.249-1.032V750.161s3.782-20.424,3.782-25.719,22.693-74.887-16.642-80.938-107.041-17.129-107.041-17.129Z" transform="translate(-45.737 -70.105)" fill="#2f2e41"/>
    <path id="Path_306" data-name="Path 306" d="M128.221,789.765l-1.513,11.346s-49.924-9.834-60.515-.756-10.59,15.129-18.911,9.077c-3.536-2.572-.514-8.833,4.13-15.182a76.425,76.425,0,0,1,28.166-23.387c12.484-6.112,29.731-14.993,29.731-17.407,0-3.782,13.616-15.129,18.911-9.077s15.129,22.693,15.129,22.693Z" transform="translate(-45.737 -70.105)" fill="#2f2e41"/>
    <path id="Path_307" data-name="Path 307" d="M439.594,768.322s-11.088,39.311-7.056,41.327,12.1,8.064,24.191,8.064c7.147,0,17.814,3.871,25.345,7.039a61.1,61.1,0,0,0,27.847,4.79c6.349-.437,11.747-1.926,11.318-5.781-1.008-9.072-20.159-11.088-20.159-11.088l-20.159-26.207s-3.528-16.631-6.552-16.631a6.622,6.622,0,0,1-4.536-1.512Z" transform="translate(-45.737 -70.105)" fill="#2f2e41"/>
    <path id="Path_308" data-name="Path 308" d="M304.68,478.639a18.753,18.753,0,0,0-25.979-9.852c-6.249,3.153-12.03,9.413-11.675,21.809.756,26.475,2.269,83.964,2.269,83.964l33.283,91.528s-8.321,61.271,13.616,55.219S323,663.819,323,663.819l-25.719-86.99,6.051-68.835S309.829,492.163,304.68,478.639Z" transform="translate(-45.737 -70.105)" fill="#ffb9b9"/>
    <path id="Path_309" data-name="Path 309" d="M326.284,401.93a24.563,24.563,0,0,1,21.434-3.744l.879.271c16.943,5.221,25.953,24.784,20.125,43.7h0l-5.677-1.749,1.234-7.261-3.495,6.564-33.67-10.376-1-6.773L325,428.679l-6.624-2.041q-11.732,21.6-.868,50.157l-11.284-3.477-2-13.547-2.229,12.243-21.509-6.628,4.138-28.462C290.887,416.584,308.02,402.979,326.284,401.93Z" transform="translate(-45.737 -70.105)" fill="#2f2e41"/>
    <circle id="Ellipse_78" data-name="Ellipse 78" cx="90.794" cy="90.794" r="90.794" transform="translate(396.56 357.781)" fill="#6c63ff"/>
    <path id="Path_310" data-name="Path 310" d="M1069.23,307.458l-.734-1.86L895.314,373.883,729.7,184.459,935.288,103.4l-.734-1.86L728.3,182.86l-51.15-58.5,8.433-3.284c-5.742-.782-13.088-3.72-18.411-6.61,2.152,5.663,4.083,13.335,4.091,19.13l4.381-7.92,50.68,57.966L411.82,307.648l-.257-9.046c-2.667,5.145-7.9,11.075-12.415,15.117,6.057-.123,13.931.637,19.392,2.578l-5.987-6.789,315.172-124.27L893.338,374.662,545.762,511.709l-.257-9.045c-2.667,5.145-7.9,11.075-12.415,15.117,6.057-.123,13.931.637,19.392,2.578L546.5,513.57l348.24-137.31,150.758,172.432,1.506-1.316L896.712,375.481Z" transform="translate(-45.737 -70.105)" fill="#3f3d56"/>
    <rect id="Rectangle_74" data-name="Rectangle 74" width="170.8" height="65.623" transform="translate(937.726 204.061)" fill="#3f3d56"/>
    <rect id="Rectangle_75" data-name="Rectangle 75" width="110.571" height="5.394" transform="translate(967.841 221.591)" fill="#f2f2f2"/>
    <rect id="Rectangle_76" data-name="Rectangle 76" width="110.571" height="5.394" transform="translate(967.841 234.176)" fill="#f2f2f2"/>
    <rect id="Rectangle_77" data-name="Rectangle 77" width="110.571" height="5.394" transform="translate(967.841 246.761)" fill="#f2f2f2"/>
    <rect id="Rectangle_78" data-name="Rectangle 78" width="170.8" height="65.623" transform="translate(803.783)" fill="#3f3d56"/>
    <rect id="Rectangle_79" data-name="Rectangle 79" width="110.571" height="5.394" transform="translate(833.898 17.529)" fill="#f2f2f2"/>
    <rect id="Rectangle_80" data-name="Rectangle 80" width="110.571" height="5.394" transform="translate(833.898 30.115)" fill="#f2f2f2"/>
    <rect id="Rectangle_81" data-name="Rectangle 81" width="110.571" height="5.394" transform="translate(833.898 42.7)" fill="#f2f2f2"/>
    <rect id="Rectangle_82" data-name="Rectangle 82" width="170.8" height="65.623" transform="translate(915.253 444.979)" fill="#3f3d56"/>
    <rect id="Rectangle_83" data-name="Rectangle 83" width="110.571" height="5.394" transform="translate(945.367 462.508)" fill="#f2f2f2"/>
    <rect id="Rectangle_84" data-name="Rectangle 84" width="110.571" height="5.394" transform="translate(945.367 475.094)" fill="#f2f2f2"/>
    <rect id="Rectangle_85" data-name="Rectangle 85" width="110.571" height="5.394" transform="translate(945.367 487.679)" fill="#f2f2f2"/>
  </g>
</svg>
